<?xml version="1.0" encoding="UTF-8"?>
<svg xmlns="http://www.w3.org/2000/svg" xmlns:xlink="http://www.w3.org/1999/xlink" width="10px" height="10px" viewBox="0 0 10 10" version="1.1">
<g id="surface1">
<path style=" stroke:none;fill-rule:nonzero;fill:rgb(28.627451%,31.372549%,34.117647%);fill-opacity:1;" d="M 10 5 C 10 6.324219 9.472656 7.597656 8.535156 8.535156 C 7.597656 9.472656 6.324219 10 5 10 C 3.675781 10 2.402344 9.472656 1.464844 8.535156 C 0.527344 7.597656 0 6.324219 0 5 C 0 3.675781 0.527344 2.402344 1.464844 1.464844 C 2.402344 0.527344 3.675781 0 5 0 C 6.324219 0 7.597656 0.527344 8.535156 1.464844 C 9.472656 2.402344 10 3.675781 10 5 Z M 5 2.5 C 4.921875 2.5 4.84375 2.515625 4.769531 2.546875 C 4.699219 2.582031 4.632812 2.628906 4.582031 2.6875 C 4.527344 2.746094 4.488281 2.8125 4.464844 2.890625 C 4.4375 2.964844 4.429688 3.042969 4.4375 3.121094 L 4.65625 5.3125 C 4.664062 5.398438 4.703125 5.480469 4.765625 5.539062 C 4.832031 5.597656 4.914062 5.628906 5 5.628906 C 5.085938 5.628906 5.167969 5.597656 5.234375 5.539062 C 5.296875 5.480469 5.335938 5.398438 5.34375 5.3125 L 5.5625 3.121094 C 5.570312 3.042969 5.5625 2.964844 5.535156 2.890625 C 5.511719 2.8125 5.472656 2.746094 5.417969 2.6875 C 5.367188 2.628906 5.300781 2.582031 5.230469 2.546875 C 5.15625 2.515625 5.078125 2.5 5 2.5 Z M 5 6.25 C 4.835938 6.25 4.675781 6.316406 4.558594 6.433594 C 4.441406 6.550781 4.375 6.710938 4.375 6.875 C 4.375 7.039062 4.441406 7.199219 4.558594 7.316406 C 4.675781 7.433594 4.835938 7.5 5 7.5 C 5.167969 7.5 5.324219 7.433594 5.441406 7.316406 C 5.558594 7.199219 5.625 7.039062 5.625 6.875 C 5.625 6.710938 5.558594 6.550781 5.441406 6.433594 C 5.324219 6.316406 5.167969 6.25 5 6.25 Z M 5 6.25 "/>
</g>
</svg>
